HIERARCHY
ROOT Hips
{
	OFFSET 0.000000 0.000000 0.000000 
	CHANNELS 6 Xposition Yposition Zposition Zrotation Yrotation Xrotation
	JOINT LeftUpLeg
	{
		OFFSET 1.363060 -1.794630 0.839290 
		CHANNELS 3 Zrotation Yrotation Xrotation
		JOINT LeftLeg
		{
			OFFSET 2.448110 -6.726130 0.000000 
			CHANNELS 3 Zrotation Yrotation Xrotation
			JOINT LeftFoot
			{
				OFFSET 2.562200 -7.039590 0.000000 
				CHANNELS 3 Zrotation Yrotation Xrotation
				JOINT LeftToeBase
				{
					OFFSET 0.157640 -0.433110 2.322550 
					CHANNELS 3 Zrotation Yrotation Xrotation
					End Site
					{
						OFFSET 0.000000 0.000000 0.000000 
					}
				}
			}
		}
	}
	JOINT RightUpLeg
	{
		OFFSET -1.305520 -1.794630 0.839290 
		CHANNELS 3 Zrotation Yrotation Xrotation
		JOINT RightLeg
		{
			OFFSET -2.542530 -6.985550 0.000000 
			CHANNELS 3 Zrotation Yrotation Xrotation
			JOINT RightFoot
			{
				OFFSET -2.568260 -7.056230 0.000000 
				CHANNELS 3 Zrotation Yrotation Xrotation
				JOINT RightToeBase
				{
					OFFSET -0.164730 -0.452590 2.363150 
					CHANNELS 3 Zrotation Yrotation Xrotation
					End Site
					{
						OFFSET 0.000000 0.000000 0.000000 
					}
				}
			}
		}
	}
	JOINT Spine
	{
		OFFSET 0.028270 2.035590 -0.193380 
		CHANNELS 3 Zrotation Yrotation Xrotation
		JOINT Spine1
		{
			OFFSET 0.056720 2.048850 -0.042750 
			CHANNELS 3 Zrotation Yrotation Xrotation
			JOINT Neck1
			{
				OFFSET -0.054170 1.746240 0.172020 
				CHANNELS 3 Zrotation Yrotation Xrotation
				JOINT Head
				{
					OFFSET 0.104070 1.761360 -0.123970 
					CHANNELS 3 Zrotation Yrotation Xrotation
					End Site
					{
						OFFSET 0.000000 0.000000 0.000000 
					}
				}
			}
			JOINT LeftArm
			{
				OFFSET 3.362410 1.200890 -0.311210 
				CHANNELS 3 Zrotation Yrotation Xrotation
				JOINT LeftForeArm
				{
					OFFSET 4.983000 -0.000000 -0.000000 
					CHANNELS 3 Zrotation Yrotation Xrotation
					JOINT LeftHand
					{
						OFFSET 3.483560 -0.000000 -0.000000 
						CHANNELS 3 Zrotation Yrotation Xrotation
						JOINT LeftHandIndex1
						{
							OFFSET 0.715260 -0.000000 -0.000000 
							CHANNELS 3 Zrotation Yrotation Xrotation
							End Site
							{
								OFFSET 0.000000 0.000000 0.000000 
							}
						}
					}
				}
			}
			JOINT RightArm
			{
				OFFSET -3.136600 1.374050 -0.404650 
				CHANNELS 3 Zrotation Yrotation Xrotation
				JOINT RightForeArm
				{
					OFFSET -5.241900 -0.000000 -0.000000 
					CHANNELS 3 Zrotation Yrotation Xrotation
					JOINT RightHand
					{
						OFFSET -3.444170 -0.000000 -0.000000 
						CHANNELS 3 Zrotation Yrotation Xrotation
						JOINT RightHandIndex1
						{
							OFFSET -0.622530 -0.000000 -0.000000 
							CHANNELS 3 Zrotation Yrotation Xrotation
							End Site
							{
								OFFSET 0.000000 0.000000 0.000000 
							}
						}
					}
				}
			}
		}
	}
}
MOTION
Frames: 9
Frame Time: 0.041667
0.625681 18.440542 10.181906 -11.587518 1.801794 13.848309 -17.987614 -46.389170 19.198418 -3.904301 -2.786899 -3.332287 -14.283946 44.812705 -33.387621 0.607600 4.989100 13.877500 24.336375 27.104860 0.149376 3.641381 -0.797834 3.134722 8.817684 -27.297080 -5.345774 -0.077400 -1.794500 4.938000 34.336096 6.101530 -7.530965 -13.801875 -1.582112 -11.383143 18.556682 -16.990547 27.155679 3.379700 -6.424600 9.735900 -90.169931 1.686155 48.238212 91.120541 -57.207036 -68.657191 -1.792153 -1.625383 -11.987772 -7.125000 0.000000 0.000000 64.372289 22.161424 28.487198 -79.428568 54.569073 -55.104569 -0.756989 1.319588 12.089772 7.125000 0.000000 0.000000 
0.619890 18.440542 10.197490 -11.586934 2.037187 13.714837 -17.981425 -46.276924 19.220114 -3.893994 -2.783210 -3.342104 -14.300827 44.704371 -32.921013 0.575600 4.858600 13.505800 24.461220 27.040635 0.397064 3.653869 -0.757720 3.072912 8.886137 -27.471634 -5.626964 -0.078200 -1.804100 4.964500 34.476279 5.827977 -7.257776 -13.665837 -1.692446 -11.505455 18.010013 -16.526288 27.218330 3.262600 -6.233000 9.670900 -90.341863 1.645963 47.883812 91.026196 -57.203756 -68.587917 -1.798716 -1.625197 -11.792420 -7.125000 0.000000 0.000000 65.803348 20.162129 29.939234 -84.921217 55.684300 -60.229231 -0.908717 1.256197 12.096994 7.125000 0.000000 0.000000 
0.615573 18.438857 10.204545 -11.577428 2.129555 13.618155 -17.903130 -46.020837 19.071685 -3.886210 -2.759378 -3.283718 -14.266382 44.522800 -32.488039 0.555800 4.775500 13.269300 24.480318 26.774859 0.369067 3.650920 -0.782182 3.162552 8.829557 -27.304413 -5.663750 -0.080700 -1.832200 5.042100 34.534839 5.668902 -7.114319 -13.501900 -1.758231 -11.635829 17.290713 -16.064286 27.636210 3.101300 -6.036300 9.710800 -90.542678 1.674784 47.668831 91.131731 -57.227735 -68.683487 -1.790101 -1.648022 -11.919792 -7.125000 0.000000 0.000000 67.302713 18.155274 31.444947 -89.756706 56.528776 -64.559328 -0.995023 1.174810 11.981757 7.125000 0.000000 0.000000 
0.618100 18.435803 10.207493 -11.742590 2.318694 13.439417 -17.714290 -45.569404 19.006142 -3.873225 -2.724473 -3.220178 -14.289194 44.348534 -31.744429 0.513900 4.594700 12.756100 24.843908 26.342993 0.491907 3.646581 -0.802883 3.247794 8.719887 -27.042708 -5.640360 -0.077500 -1.795400 4.940700 34.226510 5.802304 -7.751455 -13.529256 -1.800584 -11.835331 16.332037 -15.652519 28.257469 2.865000 -5.884500 9.762000 -90.642976 2.073148 47.666528 91.407269 -57.271524 -68.917769 -1.774779 -1.673485 -12.306818 -7.125000 0.000000 0.000000 69.008130 15.950560 32.746752 -93.582180 57.102970 -67.852853 -1.041838 1.099822 12.037804 7.125000 0.000000 0.000000 
0.624734 18.425379 10.208020 -11.926713 2.278942 13.732315 -17.497190 -45.499322 18.972897 -3.876537 -2.686027 -3.204898 -14.218236 44.314725 -31.983284 0.542500 4.719000 13.108800 25.108868 25.966463 0.181098 3.626819 -0.892737 3.415971 8.527484 -26.599231 -5.296267 -0.064300 -1.636500 4.502200 33.150449 6.584425 -10.170535 -13.471174 -1.702117 -11.689967 12.771184 -14.984320 29.593074 1.865200 -5.827900 9.840900 -90.593471 2.869194 47.735758 91.482874 -57.264412 -69.014214 -1.769039 -1.683491 -12.433363 -7.125000 0.000000 0.000000 70.921133 13.319474 33.759264 -96.422569 57.482789 -70.225693 -1.069152 1.041649 12.289503 7.125000 0.000000 0.000000 
0.622207 18.408636 10.205914 -11.854965 1.564746 14.681612 -17.389312 -46.083763 18.754796 -3.910686 -2.649902 -3.194437 -13.946836 44.471627 -33.904958 0.686000 5.295300 14.752800 24.649540 26.026273 -0.978448 3.578550 -1.124387 3.829343 8.269369 -25.945695 -4.534405 -0.046600 -1.393400 3.831900 32.031090 7.566896 -12.973169 -13.148239 -1.440403 -10.886208 11.669923 -14.457331 30.315318 1.604700 -5.643300 9.925200 -90.578524 3.405660 47.611633 91.376605 -57.192546 -68.968727 -1.770872 -1.683764 -12.265360 -7.125000 0.000000 0.000000 72.792715 10.883203 34.763190 -98.496556 57.676353 -71.921584 -1.085215 0.997151 12.532339 7.125000 0.000000 0.000000 
0.626208 18.415481 10.219813 -11.505386 1.906360 14.419988 -17.762098 -45.988794 18.763381 -3.892432 -2.578239 -3.050611 -13.942387 44.259565 -33.168942 0.629100 5.075100 14.123000 24.439272 26.248513 -0.434207 3.609516 -1.024549 3.629294 8.518058 -26.546865 -5.154195 -0.063100 -1.621200 4.459800 31.708598 7.151116 -12.699490 -12.936636 -1.545535 -11.049883 11.501438 -14.041676 30.835540 1.597500 -5.431000 10.001400 -90.560415 3.554248 47.529543 91.374361 -57.213876 -68.993287 -1.772251 -1.692999 -12.134298 -7.125000 0.000000 0.000000 74.271059 9.271444 35.917681 -99.983100 57.822981 -73.098171 -1.099713 0.973645 12.944730 7.125000 0.000000 0.000000 
0.636527 18.413480 10.222972 -11.273730 1.885431 14.348930 -18.268541 -46.077388 19.018193 -3.898432 -2.537245 -2.941910 -13.880484 44.225257 -33.314138 0.629700 5.077700 14.130300 24.169503 26.076940 -0.413337 3.611568 -1.007865 3.596254 8.532023 -26.555137 -5.053965 -0.056100 -1.528800 4.205200 31.357711 7.026922 -12.697188 -12.825382 -1.552100 -11.074504 11.831343 -13.735183 31.305558 1.730200 -5.221200 10.116200 -90.544858 3.682947 47.575248 91.433323 -57.229227 -69.055622 -1.771126 -1.699646 -12.046687 -7.125000 0.000000 0.000000 75.110374 8.397993 37.456015 -100.683395 57.882848 -73.639588 -1.094697 0.947604 12.922049 7.125000 0.000000 0.000000 
0.631578 18.417376 10.234134 -11.125479 1.543562 14.054905 -19.210814 -46.243020 20.075059 -3.937214 -2.609509 -3.043743 -13.763391 44.349200 -34.218583 0.681800 5.279300 14.707000 24.127376 26.223424 0.064903 3.615015 -0.959669 3.522737 8.546726 -26.571242 -5.008246 -0.049200 -1.431900 3.938000 31.545570 6.908053 -12.103058 -12.659746 -1.515348 -11.164879 12.499875 -13.388466 31.290702 1.974900 -4.973100 10.100700 -90.534568 3.746238 47.654405 91.478110 -57.246879 -69.099409 -1.774661 -1.702947 -12.011054 -7.125000 0.000000 0.000000 75.492419 8.005477 39.306938 -100.872982 57.896975 -73.765871 -1.078706 0.922913 12.876246 7.125000 0.000000 0.000000 
